<?xml version="1.0" encoding="utf-8"?>
<!-- Generator: Adobe Illustrator 23.0.3, SVG Export Plug-In . SVG Version: 6.00 Build 0)  -->
<svg version="1.1" id="Layer_1" xmlns="http://www.w3.org/2000/svg" xmlns:xlink="http://www.w3.org/1999/xlink" x="0px" y="0px"
	 viewBox="0 0 682.7 682.7" style="enable-background:new 0 0 682.7 682.7;" xml:space="preserve">
<style type="text/css">
	.st0{fill:#FFFFFF;}
</style>
<path class="st0" d="M68.3,130.8c-15.5,6-25.6,21.7-25.6,39.9c0,17.3,8.5,31.5,23.3,38.7l6.7,3.3l266.9,0.4l266.9,0.3l7.5-2.8
	c21.1-7.9,31.7-33.7,23.2-56.4c-3.1-8.5-11.5-17.7-20-22.4l-5.9-3.1l-268-0.3C76.7,128.1,75.3,128.1,68.3,130.8L68.3,130.8z
	 M68.3,301.5c-9.6,3.7-19.2,13.5-22.9,23.5c-3.9,10.4-3.3,27.5,1.2,36.3c4.4,8.4,13.7,16.8,22.3,20c7.3,2.8,8,2.8,272.5,2.8h265.2
	l7.5-2.8c21.1-7.9,31.7-33.7,23.2-56.4c-3.1-8.5-11.5-17.7-20-22.4l-5.9-3.1l-268-0.3C76.7,298.8,75.3,298.8,68.3,301.5L68.3,301.5z
	 M71.2,470.8c-11.3,3.2-24.1,16.7-27.3,28.3c-2.3,8.7-0.9,25.9,2.7,32.8c4.4,8.4,13.7,16.8,22.3,20c7.3,2.8,8,2.8,272.5,2.8h265.2
	l7.5-2.8c21.1-7.9,31.7-33.7,23.2-56.4c-3.1-8.5-11.5-17.7-20-22.4l-5.9-3.1l-268-0.3C184.4,469.6,73.6,470,71.2,470.8L71.2,470.8z"
	/>
</svg>

