<?xml version="1.0" encoding="utf-8"?>
<!-- Generator: Adobe Illustrator 23.0.3, SVG Export Plug-In . SVG Version: 6.00 Build 0)  -->
<svg version="1.1" id="Layer_1" xmlns="http://www.w3.org/2000/svg" xmlns:xlink="http://www.w3.org/1999/xlink" x="0px" y="0px"
	 viewBox="0 0 164 72" style="enable-background:new 0 0 164 72;" xml:space="preserve">
<style type="text/css">
	.st0{fill:#EF3B24;}
	.st1{fill:#F3B71A;}
	.st2{fill:#ACD037;}
	.st3{fill:#498ECC;}
	.st4{fill:#FFFFFF;}
	.st5{fill:#333333;}
	.st6{fill:#010101;}
	.st7{fill:#718838;}
	.st8{fill:url(#SVGID_1_);}
	.st9{fill:url(#SVGID_2_);}
	.st10{fill:none;stroke:#718839;stroke-width:0.6223;}
</style>
<g>
	<g>
		<rect x="100" y="63.8" transform="matrix(0.7069 -0.7073 0.7073 0.7069 -16.4311 90.9162)" class="st0" width="3" height="3"/>
		<rect x="102.6" y="61.2" transform="matrix(0.7066 -0.7076 0.7076 0.7066 -13.832 92.0478)" class="st1" width="3" height="3"/>
		<rect x="97.4" y="61.2" transform="matrix(0.7073 -0.707 0.707 0.7073 -15.3636 88.2789)" class="st2" width="3" height="3"/>
		<rect x="100" y="58.6" transform="matrix(0.7073 -0.707 0.707 0.7073 -12.7769 89.3611)" class="st3" width="3" height="3"/>
	</g>
	<g>
		<path class="st4" d="M99.7,62.1l-0.3,0.3c-0.2-0.2-0.4-0.3-0.6-0.3s-0.3,0.1-0.5,0.2c-0.1,0.1-0.2,0.3-0.2,0.5s0.1,0.3,0.2,0.5
			c0.1,0.1,0.3,0.2,0.5,0.2c0.1,0,0.2,0,0.3-0.1c0.1-0.1,0.2-0.1,0.2-0.2h-0.6v-0.3h1V63c0,0.2,0,0.3-0.1,0.5s-0.2,0.3-0.3,0.3
			c-0.1,0.1-0.3,0.1-0.5,0.1s-0.4,0-0.5-0.1c-0.2-0.1-0.3-0.2-0.4-0.4s-0.1-0.3-0.1-0.5c0-0.3,0.1-0.5,0.2-0.7
			c0.2-0.2,0.5-0.3,0.8-0.3c0.2,0,0.3,0,0.5,0.1C99.5,61.9,99.6,62,99.7,62.1z"/>
	</g>
	<g>
		<path class="st4" d="M103.5,61.8h0.3l0.8,1.3v-1.3h0.4v1.9h-0.3l-0.8-1.3v1.3h-0.4V61.8z"/>
	</g>
	<g>
		<path class="st4" d="M102.6,59.5L102.6,59.5C102.6,59.5,102.6,59.6,102.6,59.5C102.6,59.6,102.6,59.6,102.6,59.5
			C102.6,59.6,102.6,59.5,102.6,59.5L102.6,59.5z"/>
		<path class="st4" d="M101.8,61.1L101.8,61.1L101.8,61.1l0.2-0.2l0,0h0.1l0.1-0.1l0,0l0,0l0,0l0,0l0,0l0,0v-0.1v-0.1v-0.1l0,0l0,0
			l0,0l0,0h-0.1l0,0l0,0l0,0l0,0l0,0l0,0l0,0l0,0l0,0l0,0l0,0l0,0l0,0l0,0l0,0l0,0l0,0l0,0l0,0l0,0l0,0l0,0l0,0l0,0l0,0l0,0l0,0l0,0
			l0,0l0,0l0,0l0,0l0,0l0,0l0,0l0,0H102l0,0v-0.1l0,0l0,0l0,0l0,0l0,0l0,0h-0.1l0,0l0,0v-0.1l0,0h0.1l0,0l0,0l0,0h0.1l0,0l0,0l0,0
			l0,0l0,0l0,0l0,0l0,0l0,0l0,0l0,0l0,0l0,0l0,0l0,0l0,0l0,0l0,0l0,0l0,0l0,0l0,0l0,0l0,0l0,0l0,0l0,0l0,0l0,0l0,0l0,0l0,0l0,0l0,0
			l0,0l0,0l0,0l0,0l0,0l0,0l0,0l0,0l0,0l0,0l0,0V59l0,0l0,0l0,0l0,0l0,0l0,0l0,0l0,0l0,0l0,0l0,0l0,0l0,0l0,0l0,0l0,0l0,0l0,0l0,0
			l0,0l0,0l0,0l0,0l0,0l0,0l0,0l0,0l0,0l0,0l0,0l0,0l0,0l0,0l0,0l0,0l0,0l0,0l0,0l0,0l0,0c-0.2,0-0.3,0-0.5,0.1l0,0l0,0l0,0l0,0l0,0
			l0,0l0,0h-0.1l0,0l0,0l0,0c-0.1,0.1-0.2,0.2-0.3,0.3l0,0l0,0l0,0l0,0l0,0v0.1l0,0l0,0l0,0l0,0l0,0l0,0l0,0l0,0v0.1l0,0v0.1l0,0
			v0.1l0,0l0,0l0,0l0,0l0,0l0,0l0,0l0,0l0,0l0,0l0.1,0.1l0.1,0.1l0,0l0,0l0,0l0,0l0,0h0.1l0,0h0.1l0,0l0,0l0,0l0,0l0,0l0,0l0,0l0,0
			l0,0l0,0l0,0l0,0l0,0v0.1v0.1v0.1l0,0l0,0l0,0l0,0v0.1v0.1v0.1v0.1v0.1l0,0L101.8,61.1L101.8,61.1L101.8,61.1L101.8,61.1
			L101.8,61.1L101.8,61.1L101.8,61.1L101.8,61.1L101.8,61.1z M101.7,59.4L101.7,59.4L101.7,59.4L101.7,59.4z M101.7,59.3L101.7,59.3
			L101.7,59.3L101.7,59.3L101.7,59.3L101.7,59.3L101.7,59.3L101.7,59.3z M101.7,59.3L101.7,59.3L101.7,59.3L101.7,59.3
			C101.6,59.3,101.7,59.3,101.7,59.3z M101.6,59.2L101.6,59.2L101.6,59.2L101.6,59.2z M101.6,59.3L101.6,59.3L101.6,59.3L101.6,59.3
			z M101.5,59.3L101.5,59.3L101.5,59.3L101.5,59.3z M101.4,58.9L101.4,58.9L101.4,58.9L101.4,58.9L101.4,58.9L101.4,58.9L101.4,58.9
			L101.4,58.9L101.4,58.9L101.4,58.9L101.4,58.9L101.4,58.9z M101.4,59L101.4,59L101.4,59L101.4,59L101.4,59z M101.3,59L101.3,59
			L101.3,59L101.3,59L101.3,59L101.3,59z M101.3,59.2L101.3,59.2L101.3,59.2L101.3,59.2L101.3,59.2L101.3,59.2L101.3,59.2
			L101.3,59.2L101.3,59.2L101.3,59.2L101.3,59.2L101.3,59.2L101.3,59.2L101.3,59.2L101.3,59.2L101.3,59.2L101.3,59.2L101.3,59.2
			L101.3,59.2L101.3,59.2L101.3,59.2L101.3,59.2L101.3,59.2L101.3,59.2L101.3,59.2L101.3,59.2L101.3,59.2L101.3,59.2L101.3,59.2
			L101.3,59.2L101.3,59.2L101.3,59.2L101.3,59.2L101.3,59.2L101.3,59.2L101.3,59.2C101.3,59.3,101.3,59.3,101.3,59.2L101.3,59.2
			L101.3,59.2L101.3,59.2L101.3,59.2L101.3,59.2L101.3,59.2L101.3,59.2C101.4,59.3,101.4,59.3,101.3,59.2
			C101.4,59.2,101.4,59.2,101.3,59.2L101.3,59.2L101.3,59.2L101.3,59.2L101.3,59.2L101.3,59.2L101.3,59.2L101.3,59.2L101.3,59.2z
			 M101.3,59L101.3,59L101.3,59L101.3,59z M101.2,59L101.2,59L101.2,59L101.2,59z M101.2,59L101.2,59L101.2,59L101.2,59z
			 M101.2,59.1L101.2,59.1L101.2,59.1L101.2,59.1z M101.1,59.1L101.1,59.1L101.1,59.1L101.1,59.1L101.1,59.1L101.1,59.1z
			 M101.2,59.3L101.2,59.3L101.2,59.3L101.2,59.3L101.2,59.3L101.2,59.3L101.2,59.3L101.2,59.3C101.2,59.2,101.2,59.2,101.2,59.3
			L101.2,59.3L101.2,59.3L101.2,59.3L101.2,59.3L101.2,59.3L101.2,59.3C101.2,59.2,101.2,59.2,101.2,59.3
			C101.2,59.2,101.2,59.2,101.2,59.3L101.2,59.3L101.2,59.3C101.3,59.2,101.2,59.2,101.2,59.3C101.3,59.2,101.3,59.2,101.2,59.3
			L101.2,59.3L101.2,59.3L101.2,59.3L101.2,59.3L101.2,59.3z"/>
		<polygon class="st4" points="102,59.1 101.9,59.1 101.9,59.2 102,59.2 102,59.2 102,59.2 102,59.2 		"/>
		<path class="st4" d="M101.7,59.9L101.7,59.9L101.7,59.9L101.7,59.9C101.6,59.8,101.6,59.8,101.7,59.9L101.7,59.9L101.7,59.9
			L101.7,59.9L101.7,59.9L101.7,59.9L101.7,59.9L101.7,59.9C101.6,59.8,101.6,59.8,101.7,59.9L101.7,59.9L101.7,59.9z"/>
		<path class="st4" d="M101.6,59.9L101.6,59.9L101.6,59.9L101.6,59.9C101.6,59.9,101.7,59.9,101.6,59.9L101.6,59.9L101.6,59.9z"/>
		<path class="st4" d="M101.8,59.9L101.8,59.9C101.8,59.9,101.7,59.9,101.8,59.9L101.8,59.9L101.8,59.9L101.8,59.9L101.8,59.9
			L101.8,59.9C101.7,59.9,101.7,59.9,101.8,59.9C101.7,59.9,101.8,59.9,101.8,59.9L101.8,59.9L101.8,59.9z"/>
		<path class="st4" d="M101.8,59.9L101.8,59.9L101.8,59.9L101.8,59.9L101.8,59.9C101.9,59.9,101.9,59.9,101.8,59.9
			C101.9,59.9,101.8,59.9,101.8,59.9z"/>
		<polygon class="st4" points="101.5,60.3 101.4,60.3 101.4,60.3 101.4,60.3 101.4,60.3 		"/>
		<path class="st4" d="M101.9,61.1L101.9,61.1C101.9,61.1,101.8,61.1,101.9,61.1C101.8,61.1,101.8,61.1,101.9,61.1L101.9,61.1
			L101.9,61.1z"/>
		<path class="st4" d="M100.5,60.2C100.5,60.2,100.5,60.3,100.5,60.2L100.5,60.2L100.5,60.2z"/>
		<path class="st4" d="M102.7,59.6C102.7,59.6,102.6,59.6,102.7,59.6L102.7,59.6L102.7,59.6C102.6,59.5,102.6,59.6,102.7,59.6
			C102.6,59.6,102.6,59.6,102.7,59.6L102.7,59.6L102.7,59.6C102.7,59.7,102.7,59.7,102.7,59.6C102.7,59.7,102.7,59.7,102.7,59.6
			C102.7,59.7,102.7,59.6,102.7,59.6z"/>
		<path class="st4" d="M101.8,58.9L101.8,58.9L101.8,58.9h-0.2l0,0c0.4,0,0.7,0.2,0.9,0.4l0,0l0,0l0,0l0,0l0,0l0,0
			C102.3,59.1,102.1,58.9,101.8,58.9L101.8,58.9L101.8,58.9z"/>
		<path class="st4" d="M100.6,60.5c0-0.1,0-0.1-0.1-0.2l0,0l0,0v-0.1l0,0l0,0c0,0,0,0,0-0.1c0-0.3,0.1-0.5,0.2-0.7l0,0l0,0l0,0l0,0
			l0,0l0,0l0,0l0,0l0,0l0,0l0,0l0,0h0.1l0,0l0,0c0,0,0.1-0.1,0.2-0.1l0,0l0,0h-0.1h-0.1l0,0h-0.1c-0.3,0.2-0.5,0.6-0.5,1
			c0,0.3,0.1,0.5,0.2,0.7L100.6,60.5C100.5,60.5,100.6,60.5,100.6,60.5z"/>
		<path class="st4" d="M102.6,60.5L102.6,60.5L102.6,60.5c-0.1,0.3-0.4,0.5-0.7,0.6l0,0l0,0l0,0l0,0c0,0,0,0-0.1,0l0,0l0,0l0,0
			c0,0-0.1,0-0.2,0c-0.4,0-0.7-0.2-0.9-0.5l0,0c0.2,0.3,0.6,0.5,1,0.5C102.1,61.2,102.5,60.9,102.6,60.5L102.6,60.5z"/>
		<path class="st4" d="M102.5,59.3L102.5,59.3C102.5,59.2,102.5,59.2,102.5,59.3L102.5,59.3L102.5,59.3z"/>
		<path class="st4" d="M101.8,61.1L101.8,61.1L101.8,61.1L101.8,61.1L101.8,61.1z"/>
		<path class="st4" d="M101,59.1L101,59.1L101,59.1h-0.2l0,0l0,0l0,0l0,0l0,0l0,0l0,0l0,0l0,0l0,0l0,0l0,0
			C100.8,59.3,100.9,59.2,101,59.1z"/>
		<path class="st4" d="M101,59L101,59l0.2-0.1l0,0l0,0c0.1-0.1,0.3-0.1,0.5-0.1l0,0l0,0h0.1h0.1l0,0l0,0l0,0c-0.1,0-0.2,0-0.3,0
			C101.3,58.8,101.1,58.9,101,59L101,59L101,59z"/>
		<path class="st4" d="M101.8,61.1C101.8,61.1,101.9,61.1,101.8,61.1C101.9,61.1,101.9,61.1,101.8,61.1
			C101.9,61.1,101.9,61.1,101.8,61.1C101.9,61.1,101.9,61.1,101.8,61.1L101.8,61.1z"/>
		<path class="st4" d="M102.5,59.2L102.5,59.2L102.5,59.2z"/>
		<path class="st4" d="M102.6,59.6C102.6,59.6,102.6,59.5,102.6,59.6L102.6,59.6L102.6,59.6c0-0.1-0.1-0.2-0.1-0.2l0,0l0,0l0,0l0,0
			l0,0l0,0v0.1l0,0l0,0h0.1h-0.1l0,0l0,0l0,0l0,0L102.6,59.6L102.6,59.6L102.6,59.6l-0.1,0.2v0.1l0,0h0.1l0,0l0,0h0.1l0,0
			c0,0,0,0,0,0.1v0.1c0,0,0,0,0,0.1c0,0,0,0,0,0.1l0,0v0.1c0,0,0,0,0,0.1c0.1-0.1,0.1-0.3,0.1-0.5C102.7,59.9,102.7,59.7,102.6,59.6
			L102.6,59.6z"/>
		<path class="st4" d="M102.7,59.7L102.7,59.7L102.7,59.7C102.6,59.6,102.6,59.6,102.7,59.7c0,0,0,0.2,0,0.3c0,0.2,0,0.3-0.1,0.5
			l0,0l0,0l0,0c0.1-0.2,0.1-0.3,0.1-0.5C102.8,59.9,102.8,59.8,102.7,59.7z"/>
		<path class="st4" d="M102.5,59.3L102.5,59.3L102.5,59.3L102.5,59.3L102.5,59.3c0.1,0.1,0.1,0.2,0.1,0.2l0,0l0,0v0.1l0,0l0,0
			C102.7,59.5,102.6,59.4,102.5,59.3L102.5,59.3L102.5,59.3L102.5,59.3C102.5,59.2,102.5,59.2,102.5,59.3L102.5,59.3L102.5,59.3z"/>
		<path class="st4" d="M100.8,60.7L100.8,60.7L100.8,60.7L100.8,60.7L100.8,60.7L100.8,60.7L100.8,60.7l0.1-0.2v-0.1l-0.1-0.1v0.1
			h-0.1h-0.1l0,0l0,0l0,0l0,0l0,0C100.6,60.6,100.6,60.6,100.8,60.7L100.8,60.7L100.8,60.7z"/>
		<path class="st4" d="M100.6,60.5C100.6,60.5,100.5,60.5,100.6,60.5l0.1,0.2l0,0l0,0C100.6,60.6,100.6,60.6,100.6,60.5z"/>
		<path class="st4" d="M100.8,60.3L100.8,60.3L100.8,60.3L100.8,60.3L100.8,60.3L100.8,60.3L100.8,60.3L100.8,60.3L100.8,60.3
			L100.8,60.3L100.8,60.3L100.8,60.3L100.8,60.3L100.8,60.3L100.8,60.3L100.8,60.3L100.8,60.3L100.8,60.3L100.8,60.3L100.8,60.3z"/>
		<path class="st4" d="M100.9,60.3L100.9,60.3L100.9,60.3L100.9,60.3C101,60.3,100.9,60.3,100.9,60.3z"/>
		<path class="st4" d="M101,60.3L101,60.3L101,60.3z"/>
		<polygon class="st4" points="101.1,60.4 101.1,60.4 101,60.4 		"/>
		<path class="st4" d="M101.1,60.6L101.1,60.6L101.1,60.6z"/>
		<path class="st4" d="M101.2,60.5L101.2,60.5L101.2,60.5L101.2,60.5z"/>
		<path class="st4" d="M101.2,60.7C101.2,60.7,101.1,60.7,101.2,60.7C101.1,60.7,101.1,60.8,101.2,60.7
			C101.1,60.8,101.1,60.8,101.2,60.7C101.1,60.8,101.1,60.8,101.2,60.7C101.1,60.8,101.1,60.8,101.2,60.7
			C101.1,60.8,101.1,60.8,101.2,60.7L101.2,60.7L101.2,60.7L101.2,60.7C101.1,60.8,101.1,60.8,101.2,60.7
			C101.1,60.8,101.1,60.8,101.2,60.7C101.2,60.8,101.2,60.8,101.2,60.7C101.2,60.8,101.2,60.8,101.2,60.7
			C101.2,60.8,101.2,60.7,101.2,60.7z"/>
		<path class="st4" d="M101.3,60.5C101.3,60.6,101.3,60.6,101.3,60.5C101.4,60.6,101.4,60.6,101.3,60.5L101.3,60.5
			C101.4,60.5,101.3,60.5,101.3,60.5L101.3,60.5z"/>
		<path class="st4" d="M101.4,60.5L101.4,60.5L101.4,60.5L101.4,60.5L101.4,60.5L101.4,60.5L101.4,60.5z"/>
		<path class="st4" d="M100.5,60.3C100.5,60.3,100.6,60.3,100.5,60.3C100.6,60.3,100.5,60.3,100.5,60.3L100.5,60.3L100.5,60.3
			L100.5,60.3L100.5,60.3L100.5,60.3L100.5,60.3z"/>
		<path class="st4" d="M100.5,60.2L100.5,60.2C100.5,60.2,100.5,60.3,100.5,60.2C100.5,60.3,100.6,60.2,100.5,60.2
			C100.6,60.2,100.5,60.2,100.5,60.2S100.6,60.2,100.5,60.2C100.6,60.2,100.6,60.2,100.5,60.2C100.6,60.2,100.6,60.2,100.5,60.2
			L100.5,60.2C100.5,60.2,100.6,60.2,100.5,60.2C100.6,60.2,100.6,60.1,100.5,60.2C100.6,60.1,100.5,60.1,100.5,60.2
			C100.5,60.1,100.5,60.1,100.5,60.2L100.5,60.2L100.5,60.2C100.5,60.1,100.5,60.2,100.5,60.2L100.5,60.2z"/>
		<path class="st4" d="M100.5,60.2L100.5,60.2C100.5,60.1,100.5,60.1,100.5,60.2L100.5,60.2L100.5,60.2
			C100.4,60.1,100.4,60.2,100.5,60.2C100.4,60.3,100.5,60.3,100.5,60.2C100.5,60.3,100.5,60.3,100.5,60.2
			C100.5,60.3,100.5,60.3,100.5,60.2C100.5,60.3,100.5,60.2,100.5,60.2z"/>
		<path class="st4" d="M100.6,60L100.6,60C100.6,60,100.5,59.9,100.6,60C100.5,59.9,100.5,59.9,100.6,60
			C100.5,59.9,100.5,59.9,100.6,60C100.5,59.9,100.5,59.9,100.6,60C100.5,59.9,100.5,59.9,100.6,60C100.5,59.9,100.5,59.9,100.6,60
			C100.5,60,100.5,60,100.6,60C100.5,60,100.5,60,100.6,60L100.6,60z"/>
		<path class="st4" d="M100.6,60L100.6,60L100.6,60L100.6,60C100.5,60,100.5,60,100.6,60C100.5,60,100.5,60,100.6,60
			C100.6,60.1,100.6,60.1,100.6,60C100.6,60.1,100.6,60.1,100.6,60L100.6,60z"/>
		<path class="st4" d="M100.5,60L100.5,60L100.5,60L100.5,60L100.5,60L100.5,60z"/>
	</g>
	<g>
		<g>
			<path class="st4" d="M101.3,64.9h-0.6v-0.3h1.6v0.3h-0.6v1.5h-0.4V64.9z"/>
		</g>
	</g>
</g>
<g>
	<path class="st5" d="M117.6,60.3l-0.8,0.8c-0.5-0.6-1.1-0.8-1.8-0.8c-0.6,0-1.1,0.2-1.5,0.6c-0.4,0.4-0.6,0.9-0.6,1.5
		s0.2,1.1,0.6,1.5c0.4,0.4,1,0.6,1.6,0.6c0.4,0,0.8-0.1,1-0.3c0.3-0.2,0.5-0.4,0.7-0.8H115v-1.1h3.1v0.3c0,0.5-0.1,1.1-0.4,1.5
		c-0.3,0.5-0.6,0.9-1.1,1.1c-0.4,0.3-1,0.4-1.6,0.4s-1.2-0.1-1.7-0.4s-0.9-0.7-1.2-1.2c-0.3-0.5-0.4-1.1-0.4-1.7
		c0-0.8,0.3-1.5,0.8-2.1c0.6-0.7,1.5-1.1,2.5-1.1c0.5,0,1,0.1,1.5,0.3C116.8,59.6,117.2,59.9,117.6,60.3z"/>
	<path class="st5" d="M125.8,59.3h1.1l2.6,4.1v-4.1h1.2v6.2h-1.1l-2.6-4.1v4.1h-1.2C125.8,65.5,125.8,59.3,125.8,59.3z"/>
	<g>
		<g>
			<path class="st5" d="M121.2,60.5h-2.1v-1.1h5.3v1.1h-2v5.1h-1.2C121.2,65.6,121.2,60.5,121.2,60.5z"/>
		</g>
	</g>
</g>
<path class="st6" d="M39,65.5h-1.1L39,60h2.2c0.4,0,0.7,0,0.9,0.1s0.4,0.2,0.5,0.5c0.1,0.2,0.2,0.5,0.2,0.8s-0.1,0.5-0.2,0.8
	c-0.1,0.3-0.2,0.5-0.4,0.6c-0.2,0.2-0.3,0.3-0.5,0.4c-0.2,0.1-0.4,0.1-0.7,0.2c-0.2,0-0.5,0-1,0h-0.7L39,65.5z M39.6,62.5h0.3
	c0.6,0,1,0,1.2-0.1s0.4-0.2,0.5-0.4s0.2-0.3,0.2-0.5c0-0.1,0-0.2-0.1-0.3s-0.1-0.1-0.2-0.2c-0.1,0-0.3-0.1-0.7-0.1H40L39.6,62.5z"/>
<path class="st6" d="M43.4,63.3c0-0.3,0-0.7,0.1-1c0.1-0.5,0.3-0.9,0.6-1.2s0.6-0.6,1-0.8s0.8-0.3,1.3-0.3c0.7,0,1.2,0.2,1.6,0.6
	c0.4,0.4,0.6,1,0.6,1.7c0,0.6-0.1,1.1-0.4,1.7c-0.3,0.5-0.6,0.9-1.1,1.2c-0.5,0.3-1,0.4-1.6,0.4c-0.5,0-0.9-0.1-1.3-0.3
	c-0.3-0.2-0.6-0.5-0.7-0.9C43.5,64,43.4,63.7,43.4,63.3z M44.5,63.3c0,0.4,0.1,0.7,0.3,0.9c0.2,0.3,0.5,0.4,0.9,0.4
	c0.3,0,0.6-0.1,0.9-0.3c0.3-0.2,0.5-0.5,0.7-0.9s0.3-0.8,0.3-1.2s-0.1-0.8-0.3-1s-0.5-0.4-0.9-0.4c-0.5,0-1,0.3-1.3,0.8
	C44.7,62.2,44.5,62.7,44.5,63.3z"/>
<path class="st6" d="M54.4,65.5h-1.1l-0.1-4l-2,4H50L49.9,60H51v3.8l1.9-3.8h1.2l0.1,3.8L56,60h1.1L54.4,65.5z"/>
<path class="st6" d="M56.7,65.5l1.1-5.4h4L61.6,61h-2.9l-0.3,1.2h2.8L61,63.1h-2.8L58,64.6h3.2L61,65.5H56.7z"/>
<path class="st6" d="M63.2,65.5h-1.1l1.1-5.4h2.4c0.4,0,0.7,0,1,0.1c0.2,0.1,0.4,0.2,0.6,0.5c0.1,0.2,0.2,0.5,0.2,0.8
	c0,0.5-0.1,0.8-0.4,1.1s-0.7,0.5-1.3,0.6c0.1,0.1,0.3,0.3,0.4,0.5c0.2,0.4,0.5,1,0.8,1.8h-1.2c-0.1-0.3-0.3-0.8-0.6-1.4
	c-0.2-0.4-0.3-0.6-0.5-0.7c-0.1-0.1-0.3-0.1-0.6-0.1h-0.5L63.2,65.5z M63.9,62.4h0.6c0.6,0,1,0,1.2-0.1s0.3-0.2,0.5-0.3
	c0.1-0.2,0.2-0.3,0.2-0.5s-0.1-0.3-0.2-0.4S65.9,61,65.6,61h-1.2L63.9,62.4z"/>
<path class="st6" d="M67.7,65.5l1.1-5.4h4L72.6,61h-2.9l-0.3,1.2h2.8L72,63.1h-2.8L69,64.6h3.2L72,65.5H67.7z"/>
<path class="st6" d="M73.1,65.5l1.1-5.4h1.5c0.4,0,0.7,0,0.8,0c0.2,0,0.4,0.1,0.6,0.1c0.2,0.1,0.3,0.2,0.5,0.3
	c0.1,0.1,0.3,0.3,0.4,0.4c0.1,0.2,0.2,0.4,0.2,0.6c0.1,0.2,0.1,0.5,0.1,0.8c0,0.6-0.1,1.1-0.3,1.6c-0.2,0.5-0.5,0.8-0.8,1.1
	c-0.3,0.2-0.6,0.4-1,0.5c-0.2,0.1-0.6,0.1-1.1,0.1L73.1,65.5L73.1,65.5z M74.4,64.6H75c0.4,0,0.7,0,0.9-0.1c0.2-0.1,0.4-0.1,0.5-0.3
	c0.2-0.2,0.4-0.5,0.6-0.8s0.2-0.7,0.2-1.2c0-0.4-0.1-0.7-0.2-0.9s-0.3-0.3-0.5-0.4c-0.1,0-0.4-0.1-0.7-0.1h-0.6L74.4,64.6z"/>
<path class="st6" d="M81,65.5l1.1-5.4H84c0.4,0,0.7,0,0.8,0c0.3,0,0.5,0.1,0.7,0.2c0.2,0.1,0.3,0.3,0.4,0.4c0.1,0.2,0.1,0.4,0.1,0.6
	c0,0.3-0.1,0.6-0.3,0.8c-0.2,0.2-0.4,0.4-0.8,0.5c0.3,0.1,0.5,0.2,0.7,0.4s0.2,0.4,0.2,0.7s-0.1,0.6-0.3,0.9
	c-0.2,0.3-0.4,0.5-0.8,0.6c-0.3,0.1-0.8,0.2-1.3,0.2H81V65.5z M82.3,64.6h1.1c0.5,0,0.8,0,0.9-0.1c0.2-0.1,0.3-0.2,0.4-0.3
	c0.1-0.1,0.1-0.3,0.1-0.4c0-0.2-0.1-0.3-0.2-0.4c-0.1-0.1-0.4-0.2-0.7-0.2h-1.3L82.3,64.6z M82.7,62.2h0.9c0.4,0,0.7,0,0.8-0.1
	c0.2-0.1,0.3-0.1,0.4-0.3c0.1-0.1,0.1-0.3,0.1-0.4c0-0.1,0-0.3-0.1-0.3c-0.1-0.1-0.2-0.2-0.3-0.2c-0.1,0-0.3,0-0.6,0H83L82.7,62.2z"
	/>
<path class="st6" d="M88.9,65.5h-1.1l0.4-2.1L86.7,60h1.2l0.7,1.5c0.2,0.4,0.3,0.6,0.3,0.8c0.1-0.2,0.2-0.3,0.3-0.5l0.5-0.7l0.8-1.1
	h1.3l-2.5,3.4L88.9,65.5z"/>
<g>
	<polygon class="st7" points="103.8,30.2 112.2,30.2 112.2,32.2 103.8,32.2 	"/>
	<path class="st7" d="M61.5,38.9v-21h11.3h1c3,0,5.1,0.5,6.2,1.4s1.7,2.6,1.7,5.1c0,2.4-0.6,4-1.7,4.9c-1.2,0.9-3.3,1.3-6.5,1.3
		h-1.2h-7.8v8.3H61.5z M64.6,28.6h7.2c3,0,5-0.2,5.8-0.7c0.9-0.5,1.3-1.6,1.3-3.3c0-2-0.3-3.3-0.9-3.9c-0.6-0.5-1.9-0.8-4.1-0.8
		h-1.2h-8.2L64.6,28.6L64.6,28.6z"/>
	<polygon class="st7" points="96.5,20.1 96.5,38.9 93.4,38.9 93.4,20.1 84.6,20.1 84.6,17.9 105.2,17.9 105.2,20.1 	"/>
	<rect x="116.2" y="17.9" class="st7" width="3.1" height="21"/>
	<g>
		<g>
			<polygon class="st7" points="147.5,17.9 147.5,38.9 142.5,38.9 131.2,24.6 129.3,22.2 128.4,21.1 127.5,19.9 127.4,19.9 
				127.5,20.7 127.5,21.5 127.5,23.1 127.5,38.9 124.4,38.9 124.4,17.9 129.4,17.9 139.3,30.4 141.9,33.7 143.2,35.3 144.4,37 
				144.5,37 144.5,36.2 144.5,35.4 144.5,33.8 144.5,17.9 			"/>
		</g>
	</g>
	<g>
		<path class="st7" d="M61.5,42.3H64c0.5,0,0.9,0,1.1,0c0.3,0,0.5,0.1,0.8,0.2c0.3,0.1,0.5,0.3,0.6,0.5s0.2,0.5,0.2,0.8
			c0,0.7-0.4,1.1-1.1,1.4l1.5,2.3h-1.9l-1.1-2.1h-0.9v2.1h-1.8v-5.2H61.5z M63.2,43.2v1.5H64c0.7,0,1-0.3,1-0.8
			c0-0.2-0.1-0.3-0.2-0.4c-0.1-0.1-0.2-0.2-0.4-0.2c-0.1,0-0.3-0.1-0.6-0.1H63.2z"/>
		<path class="st7" d="M74.3,42.3h4.8v0.9H76v1.2h2.4v0.9H76v1.3h3.1v1h-4.8C74.3,47.6,74.3,42.3,74.3,42.3z"/>
		<path class="st7" d="M85.7,42.3h1.8l0.8,3.7l1-3.7H91l1,3.7l1-3.7h1.5l-1.7,5.3h-1.6L90.1,44L89,47.7h-1.6L85.7,42.3z"/>
		<path class="st7" d="M103.3,42.3h1.8l2.3,5.3h-1.8l-0.4-1.1H103l-0.4,1.1H101L103.3,42.3z M104.8,45.7l-0.8-2.2l-0.8,2.2H104.8z"
			/>
		<path class="st7" d="M115.1,42.3h2.5c0.5,0,0.9,0,1.1,0c0.3,0,0.5,0.1,0.8,0.2c0.3,0.1,0.5,0.3,0.6,0.5s0.2,0.5,0.2,0.8
			c0,0.7-0.4,1.1-1.1,1.4l1.5,2.3h-1.9l-1.1-2.1h-0.9v2.1H115L115.1,42.3L115.1,42.3z M116.8,43.2v1.5h0.8c0.7,0,1-0.3,1-0.8
			c0-0.2-0.1-0.3-0.2-0.4c-0.1-0.1-0.2-0.2-0.4-0.2c-0.1,0-0.3-0.1-0.6-0.1H116.8z"/>
		<path class="st7" d="M129.6,42.3h1.9c0.8,0,1.5,0.1,2,0.2c0.5,0.1,0.9,0.4,1.2,0.8c0.3,0.4,0.5,0.9,0.5,1.6c0,0.5-0.1,0.9-0.3,1.3
			c-0.2,0.4-0.4,0.7-0.7,0.9s-0.6,0.4-1,0.4c-0.4,0.1-0.9,0.1-1.4,0.1h-2.1L129.6,42.3L129.6,42.3z M131.3,43.3v3.5h0.3
			c0.4,0,0.7-0.1,0.9-0.2c0.2-0.1,0.4-0.3,0.5-0.5c0.1-0.3,0.2-0.6,0.2-1.1s-0.1-0.8-0.2-1c-0.1-0.2-0.3-0.4-0.6-0.5
			c-0.2-0.1-0.5-0.1-0.9-0.1h-0.2V43.3z"/>
		<path class="st7" d="M148,43.5l-1.4,0.4c-0.2-0.4-0.6-0.7-1.1-0.7c-0.3,0-0.5,0-0.6,0.1s-0.2,0.2-0.2,0.3c0,0.2,0.1,0.3,0.3,0.4
			c0.2,0.1,0.5,0.2,1.1,0.4c0.5,0.1,0.9,0.3,1.2,0.4c0.3,0.1,0.5,0.3,0.7,0.5s0.3,0.5,0.3,0.7c0,0.5-0.3,0.9-0.8,1.2
			s-1.2,0.5-2.1,0.5c-1.4,0-2.4-0.5-2.8-1.5l1.5-0.3c0.2,0.5,0.6,0.8,1.3,0.8c0.3,0,0.6-0.1,0.7-0.2c0.2-0.1,0.3-0.2,0.3-0.4
			c0-0.1-0.1-0.2-0.2-0.3s-0.4-0.2-0.9-0.3c-0.6-0.1-1.1-0.3-1.4-0.4c-0.3-0.1-0.5-0.3-0.7-0.5s-0.3-0.5-0.3-0.7
			c0-0.5,0.2-0.9,0.7-1.2s1.1-0.5,1.8-0.5C146.8,42.3,147.6,42.7,148,43.5z"/>
	</g>
	<path class="st4" d="M47.5,48.3H22.4c-5,0-9-4-9-9V17.4c0-4.9,4-9,9-9h25.1c5,0,9,4.1,9,9v21.9C56.5,44.3,52.4,48.3,47.5,48.3z"/>
	<g>
		
			<linearGradient id="SVGID_1_" gradientUnits="userSpaceOnUse" x1="34.85" y1="-13.7" x2="34.85" y2="-53.7304" gradientTransform="matrix(1 0 0 1 0 62)">
			<stop  offset="0.454" style="stop-color:#B0D248"/>
			<stop  offset="1" style="stop-color:#E0EAA4;stop-opacity:0.2"/>
		</linearGradient>
		<path class="st8" d="M56.1,40.2c0,4.5-3.6,8.1-8.1,8.1H21.7c-4.5,0-8.1-3.6-8.1-8.1V16c0-4.5,3.6-8.1,7.7-7.7h26.2
			C52.4,7.9,56,11.5,56,16L56.1,40.2L56.1,40.2z"/>
		
			<linearGradient id="SVGID_2_" gradientUnits="userSpaceOnUse" x1="34.95" y1="-40.1413" x2="34.95" y2="-13.6983" gradientTransform="matrix(1 0 0 1 0 62)">
			<stop  offset="0.3537" style="stop-color:#708838"/>
			<stop  offset="0.41" style="stop-color:#7A923A"/>
			<stop  offset="0.5568" style="stop-color:#8FAA3F"/>
			<stop  offset="0.7045" style="stop-color:#A0BD44"/>
			<stop  offset="0.8521" style="stop-color:#ACCC47"/>
			<stop  offset="1" style="stop-color:#B0D248"/>
		</linearGradient>
		<path class="st9" d="M56.1,21.9c0,0-4.4,10.9-21.2,9.9c-19.5-1.1-21.1-7.3-21.1-7.3l0,0l-0.1,16.3c0,4.2,5.1,7.6,6.4,7.6h30.2
			c0,0,5.9-1.9,5.9-7.6C56.1,40.7,56.1,21.9,56.1,21.9"/>
		<g>
			<g>
				<path class="st4" d="M39.1,13.9c7.5,0,12.3,0.7,14.1,2.2c1.9,1.4,2.8,5,2.8,10.8c0,6.2-0.9,10-2.7,11.4s-6.6,2.2-14.3,2.2
					s-12.4-0.7-14.2-2.2C23,36.9,22,33.2,22,27.2v-1.8l0.1-2.5c0-3.5,1.2-5.8,3.6-7.1S32.6,13.9,39.1,13.9 M39.1,16.3
					c-6.3,0-10,0.5-11.1,1.4s-1.6,4-1.6,9.4s0.5,8.5,1.6,9.4s4.8,1.4,11.1,1.4s10-0.5,11.1-1.4s1.6-4.1,1.6-9.4v-1.7v-2.5
					c0-2.9-0.7-4.7-2.2-5.5C48.1,16.7,44.6,16.3,39.1,16.3"/>
			</g>
		</g>
		<path class="st10" d="M56,40.2c0,4.5-3.5,8.1-8,8.1H21.7c-4.5,0-8.1-3.6-8.1-8.1V16c0-4.5,3.6-8.1,7.7-7.7h26.2
			C52.4,7.9,56,11.5,56,16V40.2L56,40.2z"/>
	</g>
</g>
</svg>

