<svg width="24" height="24" viewBox="0 0 24 24" fill="none" xmlns="http://www.w3.org/2000/svg">
<circle cx="12" cy="12" r="12" fill="#8A8C8E"/>
<path d="M12.9863 5.46C13.293 5.46 13.5463 5.56667 13.7463 5.78C13.9463 5.99333 14.0463 6.26667 14.0463 6.6C14.0463 6.93333 13.9396 7.20667 13.7263 7.42C13.513 7.62 13.2596 7.72 12.9663 7.72C12.673 7.72 12.4196 7.62 12.2063 7.42C12.0063 7.20667 11.9063 6.93333 11.9063 6.6C11.9063 6.26667 12.013 5.99333 12.2263 5.78C12.4396 5.56667 12.693 5.46 12.9863 5.46ZM11.8463 9.78C12.393 9.78 12.8063 9.96667 13.0863 10.34C13.3796 10.7133 13.5263 11.22 13.5263 11.86C13.5263 12.38 13.413 13.2933 13.1863 14.6C13.053 15.44 12.9463 16.1467 12.8663 16.72C12.7996 17.28 12.7663 17.8333 12.7663 18.38C12.7663 18.94 12.973 19.22 13.3863 19.22C13.6396 19.22 13.8996 19.06 14.1663 18.74C14.433 18.42 14.6596 17.9333 14.8463 17.28L15.4063 17.4C15.2463 18.12 14.9596 18.7733 14.5463 19.36C14.133 19.9333 13.593 20.22 12.9263 20.22C11.7263 20.22 11.1263 19.5933 11.1263 18.34C11.1263 17.82 11.1596 17.3133 11.2263 16.82C11.293 16.3267 11.393 15.7133 11.5263 14.98C11.6596 14.1667 11.753 13.54 11.8063 13.1C11.873 12.6467 11.9063 12.1733 11.9063 11.68C11.9063 11.4533 11.8596 11.2467 11.7663 11.06C11.6863 10.8733 11.5463 10.78 11.3463 10.78C11.093 10.78 10.833 10.94 10.5663 11.26C10.2996 11.58 10.073 12.0667 9.88631 12.72L9.32631 12.6C9.44631 11.9467 9.71965 11.3133 10.1463 10.7C10.573 10.0867 11.1396 9.78 11.8463 9.78Z" fill="white"/>
</svg>
